<svg xmlns="http://www.w3.org/2000/svg" viewBox="0 0 120 80" role="img"><title>Cape Verde flag</title><rect width="120" height="80" rx="6" fill="#111827"/><rect x="0" y="0" width="120" height="80" fill="#003893"/><rect x="0" y="42" width="120" height="8" fill="#ffffff"/><rect x="0" y="50" width="120" height="8" fill="#cf2027"/><rect x="0" y="58" width="120" height="8" fill="#ffffff"/><polygon points="35.00,36.00 36.18,38.38 38.80,38.76 36.90,40.62 37.35,43.24 35.00,42.00 32.65,43.24 33.10,40.62 31.20,38.76 33.82,38.38" fill="#f7d116"/><polygon points="47.00,30.00 48.18,32.38 50.80,32.76 48.90,34.62 49.35,37.24 47.00,36.00 44.65,37.24 45.10,34.62 43.20,32.76 45.82,32.38" fill="#f7d116"/><polygon points="47.00,42.00 48.18,44.38 50.80,44.76 48.90,46.62 49.35,49.24 47.00,48.00 44.65,49.24 45.10,46.62 43.20,44.76 45.82,44.38" fill="#f7d116"/><rect width="120" height="80" rx="6" fill="none" stroke="rgba(255,255,255,0.28)"/></svg>
