<svg xmlns="http://www.w3.org/2000/svg" viewBox="0 0 120 80" role="img"><title>Croatia flag</title><rect width="120" height="80" rx="6" fill="#111827"/><rect x="0" y="0" width="120" height="26.666666666666668" fill="#ff0000"/><rect x="0" y="26.666666666666668" width="120" height="26.666666666666668" fill="#ffffff"/><rect x="0" y="53.333333333333336" width="120" height="26.666666666666668" fill="#171796"/><rect x="47" y="28" width="5.2" height="5.2" fill="#ff0000"/><rect x="52.2" y="28" width="5.2" height="5.2" fill="#ffffff"/><rect x="57.4" y="28" width="5.2" height="5.2" fill="#ff0000"/><rect x="62.6" y="28" width="5.2" height="5.2" fill="#ffffff"/><rect x="67.8" y="28" width="5.2" height="5.2" fill="#ff0000"/><rect x="47" y="33.2" width="5.2" height="5.2" fill="#ffffff"/><rect x="52.2" y="33.2" width="5.2" height="5.2" fill="#ff0000"/><rect x="57.4" y="33.2" width="5.2" height="5.2" fill="#ffffff"/><rect x="62.6" y="33.2" width="5.2" height="5.2" fill="#ff0000"/><rect x="67.8" y="33.2" width="5.2" height="5.2" fill="#ffffff"/><rect x="47" y="38.4" width="5.2" height="5.2" fill="#ff0000"/><rect x="52.2" y="38.4" width="5.2" height="5.2" fill="#ffffff"/><rect x="57.4" y="38.4" width="5.2" height="5.2" fill="#ff0000"/><rect x="62.6" y="38.4" width="5.2" height="5.2" fill="#ffffff"/><rect x="67.8" y="38.4" width="5.2" height="5.2" fill="#ff0000"/><rect x="47" y="43.6" width="5.2" height="5.2" fill="#ffffff"/><rect x="52.2" y="43.6" width="5.2" height="5.2" fill="#ff0000"/><rect x="57.4" y="43.6" width="5.2" height="5.2" fill="#ffffff"/><rect x="62.6" y="43.6" width="5.2" height="5.2" fill="#ff0000"/><rect x="67.8" y="43.6" width="5.2" height="5.2" fill="#ffffff"/><rect width="120" height="80" rx="6" fill="none" stroke="rgba(255,255,255,0.28)"/></svg>
