<svg xmlns="http://www.w3.org/2000/svg" viewBox="0 0 120 80" role="img"><title>Cura?ao flag</title><rect width="120" height="80" rx="6" fill="#111827"/><rect x="0" y="0" width="120" height="80" fill="#002b7f"/><polygon points="28.00,19.00 29.18,22.38 32.76,22.45 29.90,24.62 30.94,28.05 28.00,26.00 25.06,28.05 26.10,24.62 23.24,22.45 26.82,22.38" fill="#f9e814"/><polygon points="90.00,16.00 91.06,18.54 93.80,18.76 91.71,20.56 92.35,23.24 90.00,21.80 87.65,23.24 88.29,20.56 86.20,18.76 88.94,18.54" fill="#f9e814"/><polygon points="98.00,38.00 99.06,40.54 101.80,40.76 99.71,42.56 100.35,45.24 98.00,43.80 95.65,45.24 96.29,42.56 94.20,40.76 96.94,40.54" fill="#f9e814"/><polygon points="82.00,54.00 83.06,56.54 85.80,56.76 83.71,58.56 84.35,61.24 82.00,59.80 79.65,61.24 80.29,58.56 78.20,56.76 80.94,56.54" fill="#f9e814"/><rect width="120" height="80" rx="6" fill="none" stroke="rgba(255,255,255,0.28)"/></svg>
