<svg xmlns="http://www.w3.org/2000/svg" viewBox="0 0 120 80" role="img"><title>Panama flag</title><rect width="120" height="80" rx="6" fill="#111827"/><rect x="0" y="0" width="60" height="40" fill="#ffffff"/><rect x="60" y="0" width="60" height="40" fill="#d21034"/><rect x="0" y="40" width="60" height="40" fill="#005293"/><rect x="60" y="40" width="60" height="40" fill="#ffffff"/><polygon points="30.00,12.00 32.06,17.17 37.61,17.53 33.33,21.08 34.70,26.47 30.00,23.50 25.30,26.47 26.67,21.08 22.39,17.53 27.94,17.17" fill="#005293"/><polygon points="90.00,52.00 92.06,57.17 97.61,57.53 93.33,61.08 94.70,66.47 90.00,63.50 85.30,66.47 86.67,61.08 82.39,57.53 87.94,57.17" fill="#d21034"/><rect width="120" height="80" rx="6" fill="none" stroke="rgba(255,255,255,0.28)"/></svg>
